<mxfile host="app.diagrams.net" modified="2024-06-13T13:01:37.563Z" agent="Mozilla/5.0 (Windows NT 10.0; Win64; x64) AppleWebKit/537.36 (KHTML, like Gecko) Chrome/125.0.0.0 Safari/537.36 Edg/125.0.0.0" version="24.5.4" etag="HRF5bh62UVub0V8ivkWB" type="github">
  <diagram name="第 1 页" id="ZBC9R2k3AfFLbUjzzXj4">
    <mxGraphModel>
      <root>
        <mxCell id="0" />
        <mxCell id="1" parent="0" />
      </root>
    </mxGraphModel>
  </diagram>
</mxfile>
